<?xml version="1.0" standalone="no"?>
<!DOCTYPE svg PUBLIC "-//W3C//DTD SVG 20010904//EN"
 "http://www.w3.org/TR/2001/REC-SVG-20010904/DTD/svg10.dtd">
<svg version="1.0" xmlns="http://www.w3.org/2000/svg"
 width="700.000000pt" height="700.000000pt" viewBox="0 0 700.000000 700.000000"
 preserveAspectRatio="xMidYMid meet">
<metadata>
Created by potrace 1.14, written by Peter Selinger 2001-2017
</metadata>
<g transform="translate(0.000000,700.000000) scale(0.100000,-0.100000)"
fill="#000000" stroke="none">
<path d="M3465 5781 c-6 -6 -21 -16 -35 -23 -14 -7 -110 -62 -213 -123 -145
-85 -184 -112 -175 -121 7 -6 227 -139 488 -294 261 -155 492 -293 512 -306
21 -13 39 -24 41 -24 11 0 411 -248 413 -256 2 -5 -72 -51 -163 -103 l-166
-94 -46 24 c-25 13 -120 64 -210 112 -94 50 -173 86 -183 84 -9 -3 -263 -152
-563 -331 l-545 -327 0 -1143 0 -1143 28 -14 c15 -7 51 -28 80 -46 29 -18 54
-33 56 -33 2 0 91 -51 197 -113 361 -210 515 -297 528 -297 6 0 94 48 194 107
100 58 297 174 437 256 140 82 271 158 290 169 19 11 100 59 180 106 80 47
188 110 240 140 52 30 107 63 122 73 15 11 30 19 32 19 3 0 35 18 71 40 36 22
67 40 69 40 1 0 77 44 167 98 l164 98 0 955 c0 525 -2 973 -5 995 l-5 42 -285
-169 c-157 -93 -400 -237 -540 -320 -140 -83 -284 -168 -319 -190 -34 -21 -65
-39 -67 -39 -3 0 -21 -11 -42 -24 -20 -13 -130 -79 -244 -146 l-208 -122 -1
-312 c0 -424 1 -580 6 -584 4 -5 118 64 754 457 233 144 427 257 430 252 5 -7
6 -430 2 -464 -1 -8 -77 -58 -151 -99 -25 -14 -139 -81 -255 -150 -403 -239
-1049 -621 -1138 -673 -26 -15 -50 -25 -53 -22 -5 4 -6 533 -4 1658 l0 167
323 197 c177 109 338 208 357 220 49 31 231 143 315 194 39 23 129 78 200 123
72 44 266 163 433 265 166 103 302 189 302 192 0 6 -73 51 -155 97 -11 6 -193
111 -405 234 -212 122 -401 231 -420 242 -58 33 -351 203 -578 334 -117 68
-221 124 -231 124 -9 0 -21 -4 -26 -9z"/>
<path d="M2635 5302 c-16 -10 -50 -30 -75 -44 -25 -14 -193 -112 -375 -217
-449 -262 -464 -270 -515 -301 -25 -15 -66 -39 -92 -54 -26 -15 -51 -34 -56
-44 -9 -18 -11 -2277 -2 -2285 6 -5 455 -264 525 -302 28 -15 54 -31 59 -36
36 -33 36 -40 38 1113 l3 1123 125 77 c69 43 132 81 140 86 23 11 68 38 529
317 182 110 331 205 331 210 0 6 -82 61 -183 124 -100 63 -211 133 -247 156
-169 109 -158 105 -205 77z"/>
</g>
</svg>
