<?xml version="1.0" standalone="no"?>
<!DOCTYPE svg PUBLIC "-//W3C//DTD SVG 20010904//EN"
 "http://www.w3.org/TR/2001/REC-SVG-20010904/DTD/svg10.dtd">
<svg version="1.0" xmlns="http://www.w3.org/2000/svg"
 width="700.000000pt" height="700.000000pt" viewBox="0 0 700.000000 700.000000"
 preserveAspectRatio="xMidYMid meet">
<metadata>
Created by potrace 1.14, written by Peter Selinger 2001-2017
</metadata>
<g transform="translate(0.000000,700.000000) scale(0.100000,-0.100000)"
fill="#000000" stroke="none">
<path d="M1045 6985 c-134 -21 -234 -53 -360 -115 -257 -127 -442 -314 -565
-573 -56 -117 -84 -211 -105 -347 -22 -143 -22 -4757 0 -4900 40 -261 152
-491 329 -673 140 -146 355 -276 536 -327 187 -52 88 -50 2620 -50 2532 0
2434 -2 2620 50 99 28 261 106 356 172 92 63 210 178 282 273 66 87 164 285
192 385 52 188 50 89 50 2620 0 2532 2 2434 -50 2620 -28 99 -106 261 -172
357 -68 99 -202 233 -301 301 -96 66 -258 144 -357 172 -187 52 -86 50 -2630
49 -1847 -1 -2383 -4 -2445 -14z m3354 -1709 c484 -281 881 -513 881 -516 0
-4 -84 -59 -187 -122 -104 -64 -377 -231 -608 -373 -231 -142 -581 -357 -777
-477 l-358 -220 0 -915 c0 -860 1 -915 17 -909 20 8 1515 890 1556 918 l27 19
0 241 c0 132 -4 238 -8 236 -5 -1 -265 -162 -580 -356 -314 -194 -578 -355
-587 -358 -13 -6 -15 42 -15 444 l0 450 842 498 c463 275 847 500 853 502 10
2 14 -167 19 -750 4 -414 6 -861 4 -993 l-3 -240 -240 -141 c-1313 -772 -1718
-1006 -1735 -1001 -19 5 -804 455 -852 489 l-28 19 0 1139 0 1140 546 326
c300 179 554 328 563 331 9 2 110 -46 223 -106 114 -61 211 -111 215 -111 17
1 326 185 326 195 0 6 -325 204 -722 441 -397 237 -726 435 -731 440 -13 13
427 274 456 271 12 -1 418 -231 903 -511z m-1415 -141 c157 -99 286 -184 286
-190 0 -5 -253 -163 -563 -350 l-562 -340 -3 -1122 c-1 -711 -6 -1123 -12
-1123 -14 0 -604 340 -612 354 -4 6 -8 518 -8 1137 0 1059 1 1128 18 1147 25
29 1134 673 1154 670 9 -2 145 -84 302 -183z"/>
</g>
</svg>
